<?xml version="1.0" standalone="no"?>
<!DOCTYPE svg PUBLIC "-//W3C//DTD SVG 20010904//EN"
 "http://www.w3.org/TR/2001/REC-SVG-20010904/DTD/svg10.dtd">
<svg version="1.0" xmlns="http://www.w3.org/2000/svg"
 width="659.000000pt" height="431.000000pt" viewBox="0 0 659.000000 431.000000"
 preserveAspectRatio="xMidYMid meet">

<g transform="translate(0.000000,431.000000) scale(0.100000,-0.100000)"
fill="#000000" stroke="none">
<path d="M2 2158 l3 -2153 3272 -3 3272 -2 16 29 c13 27 15 267 15 2133 0
1888 -2 2106 -16 2126 l-15 22 -3275 0 -3274 0 2 -2152z m3886 1320 c14 -14
17 -1054 4 -1076 -7 -9 -46 -12 -163 -10 -146 3 -154 4 -154 23 0 19 8 20 138
23 l137 3 0 202 0 201 -75 -74 -75 -75 -127 127 -126 126 201 209 c189 195
202 210 202 246 l0 37 -215 0 -215 0 0 -166 0 -165 -22 7 c-13 4 -52 19 -87
34 l-64 28 -62 -28 c-33 -15 -71 -31 -83 -34 l-22 -7 0 165 0 166 -180 0 -180
0 0 -500 0 -499 128 -3 c119 -3 127 -4 127 -23 0 -19 -7 -20 -150 -20 l-150 0
-3 539 c-2 425 0 541 10 548 7 4 279 8 603 8 447 0 594 -3 603 -12z m-360
-691 l83 -84 -72 -174 c-86 -210 -96 -229 -114 -229 -27 0 -26 21 6 79 33 60
34 91 2 91 -13 0 -33 -26 -63 -82 -28 -51 -52 -84 -64 -86 -37 -8 -34 20 10
93 47 78 53 102 27 112 -19 8 -39 -15 -93 -107 -45 -77 -71 -103 -94 -94 -25
10 -20 28 34 115 49 78 60 112 41 123 -20 13 -39 -8 -101 -109 -51 -83 -69
-105 -85 -103 -11 2 -21 10 -23 19 -2 9 51 99 118 199 67 100 120 189 118 198
-5 28 -33 24 -89 -13 -73 -48 -125 -64 -145 -43 -14 14 -4 23 98 96 l113 80
105 1 105 1 83 -83z m-132 -760 c44 -23 81 -70 95 -119 7 -26 9 -116 7 -242
-4 -239 -8 -254 -100 -299 -49 -25 -69 -29 -140 -29 -126 0 -206 42 -228 121
-5 20 -10 128 -10 241 0 264 11 293 128 336 50 19 205 13 248 -9z m671 0 c64
-33 103 -105 103 -189 l0 -38 -70 0 c-63 0 -70 2 -70 20 0 60 -55 97 -124 85
-66 -13 -71 -27 -71 -212 l0 -165 28 -24 c30 -26 83 -32 119 -13 20 11 48 65
48 94 0 12 -13 15 -60 15 l-60 0 0 65 0 65 130 0 130 0 0 -114 c0 -158 -24
-217 -104 -255 -89 -42 -233 -33 -308 21 -59 42 -68 79 -68 311 0 227 5 253
56 301 16 15 49 33 74 41 58 19 203 14 247 -8z m639 8 c53 -16 96 -53 113 -98
17 -45 14 -461 -3 -495 -37 -71 -106 -104 -221 -104 -116 0 -182 32 -223 107
-21 39 -30 363 -12 450 22 106 92 153 231 154 36 1 88 -6 115 -14z m-2600 -14
c86 -39 104 -96 104 -332 0 -181 -6 -220 -43 -273 -38 -55 -83 -66 -269 -66
l-168 0 0 345 0 345 168 0 c141 0 173 -3 208 -19z m605 8 c46 -16 86 -54 101
-98 8 -21 13 -85 13 -156 0 -127 -8 -158 -54 -199 -12 -11 -21 -25 -21 -31 0
-7 18 -51 40 -98 22 -47 40 -88 40 -91 0 -3 -33 -6 -72 -6 l-73 0 -40 90 c-36
81 -43 90 -67 90 l-28 0 0 -90 0 -90 -70 0 -70 0 0 345 0 345 134 0 c73 0 148
-5 167 -11z m-536 -844 c23 -22 25 -31 25 -129 0 -58 -5 -116 -11 -129 -14
-31 -48 -47 -99 -47 l-40 0 0 165 0 165 50 0 c41 0 56 -5 75 -25z m238 13 c34
-18 46 -40 47 -81 0 -30 -7 -45 -30 -69 l-30 -30 20 -34 c11 -19 29 -50 41
-69 11 -19 16 -35 10 -35 -6 0 -27 32 -46 70 -35 69 -36 70 -75 70 l-39 0 -4
-72 c-1 -40 -4 2 -5 95 l-2 167 46 0 c25 0 55 -5 67 -12z m283 -9 c17 -18 19
-37 19 -145 0 -140 -5 -152 -71 -161 -30 -4 -45 0 -64 15 -24 20 -25 24 -25
145 0 148 9 167 80 167 30 0 47 -6 61 -21z m247 1 c33 -26 43 -80 22 -124 -18
-38 -50 -56 -100 -56 l-35 0 0 -65 c0 -37 -4 -65 -10 -65 -6 0 -10 62 -10 165
l0 165 54 0 c38 0 60 -6 79 -20z m347 11 c0 -6 -4 -13 -10 -16 -5 -3 -10 1
-10 9 0 9 5 16 10 16 6 0 10 -4 10 -9z m254 -129 c33 -73 64 -132 68 -132 4 0
9 62 11 138 l3 137 2 -167 c1 -93 -1 -168 -5 -168 -5 0 -37 66 -73 147 l-65
146 -3 -146 c-4 -207 -22 -191 -22 19 0 122 3 165 12 162 6 -2 39 -63 72 -136z
m311 113 c23 -22 25 -31 25 -129 0 -58 -5 -116 -11 -129 -14 -31 -48 -47 -99
-47 l-40 0 0 165 0 165 50 0 c41 0 56 -5 75 -25z m385 5 c12 -12 20 -32 19
-52 l-1 -33 -8 32 c-12 51 -28 64 -74 61 -59 -4 -67 -27 -64 -165 2 -75 7
-116 16 -125 19 -19 93 -14 109 8 7 10 13 39 13 66 l0 48 -35 0 c-19 0 -35 3
-35 8 0 4 18 6 40 4 l40 -4 0 -59 c0 -78 -23 -104 -84 -96 -67 9 -76 29 -76
168 0 139 10 159 80 159 27 0 47 -7 60 -20z m246 12 c26 -17 34 -56 34 -162 0
-104 -1 -112 -25 -135 -34 -35 -101 -30 -127 9 -4 6 -8 68 -8 138 0 120 1 128
22 142 23 17 85 21 104 8z m-1179 -74 c-3 -8 -6 -5 -6 6 -1 11 2 17 5 13 3 -3
4 -12 1 -19z m10 -40 c-3 -8 -6 -5 -6 6 -1 11 2 17 5 13 3 -3 4 -12 1 -19z
m-70 -10 c-3 -8 -6 -5 -6 6 -1 11 2 17 5 13 3 -3 4 -12 1 -19z m107 -110 c13
-49 20 -88 15 -88 -5 0 -9 6 -9 13 0 6 -5 29 -11 50 l-10 37 -58 0 -59 0 -12
-51 c-7 -27 -15 -48 -17 -45 -3 3 3 35 13 72 10 37 20 62 22 56 2 -7 24 -12
54 -12 l50 0 -6 38 c-7 51 0 33 28 -70z m-117 70 c-3 -8 -6 -5 -6 6 -1 11 2
17 5 13 3 -3 4 -12 1 -19z"/>
<path d="M3164 1970 c-43 -22 -81 -76 -71 -101 3 -9 6 -6 6 8 1 33 48 81 89
93 87 24 174 4 209 -49 22 -32 23 -43 23 -218 0 -192 -5 -217 -46 -255 -28
-25 -107 -41 -159 -34 -56 9 -91 38 -110 91 -8 22 -14 32 -15 22 -1 -41 32
-86 77 -108 36 -17 56 -21 104 -16 71 6 116 31 144 77 18 32 20 52 20 215 0
155 -3 185 -18 217 -37 73 -164 102 -253 58z"/>
<path d="M3223 1903 c-13 -2 -32 -16 -43 -30 -18 -23 -20 -40 -20 -175 0 -197
10 -218 104 -218 33 0 48 6 67 26 23 24 24 33 27 168 3 112 0 150 -12 179 -20
49 -55 63 -123 50z"/>
<path d="M3084 1700 c0 -80 2 -112 3 -72 2 39 2 105 0 145 -1 39 -3 7 -3 -73z"/>
<path d="M3823 1960 c-64 -39 -68 -53 -68 -265 0 -165 2 -194 18 -223 18 -33
68 -62 104 -62 10 1 0 7 -22 15 -85 30 -101 85 -93 323 5 145 17 180 72 206
19 9 59 16 90 16 78 0 131 -28 157 -83 10 -23 16 -31 13 -17 -10 46 -26 67
-64 89 -51 29 -161 30 -207 1z"/>
<path d="M4019 1663 l73 -4 -3 -85 c-4 -83 -5 -86 -40 -118 -27 -25 -48 -35
-88 -40 -29 -4 -51 -9 -49 -12 10 -9 98 9 127 27 44 27 60 66 63 155 l3 79
-80 1 -80 0 74 -3z"/>
<path d="M4500 1968 c-69 -35 -75 -55 -78 -260 -3 -160 -1 -182 17 -223 27
-61 87 -90 172 -82 73 6 114 31 139 82 18 36 20 62 20 216 0 146 -3 180 -18
208 -27 54 -61 73 -139 78 -57 4 -75 1 -113 -19z m179 -4 c71 -28 76 -44 79
-254 3 -210 -4 -237 -68 -275 -50 -28 -157 -28 -197 1 -55 40 -63 72 -63 256
0 203 10 240 74 269 50 23 123 24 175 3z"/>
<path d="M4565 1903 c-11 -3 -30 -14 -42 -26 -22 -20 -23 -27 -23 -184 0 -161
0 -164 25 -188 19 -20 34 -25 74 -25 42 0 53 4 70 26 19 24 21 40 21 180 0
170 -7 197 -53 214 -31 10 -39 11 -72 3z"/>
<path d="M1797 1973 c-4 -3 -7 -132 -7 -285 l0 -278 120 0 c100 0 127 3 159
19 72 37 76 52 76 261 0 167 -2 188 -20 218 -33 55 -84 72 -211 72 -61 0 -114
-3 -117 -7z m270 -26 c60 -32 68 -61 68 -259 0 -163 -2 -179 -21 -205 -37 -50
-77 -63 -196 -63 l-108 0 0 276 0 276 113 -4 c81 -3 121 -9 144 -21z"/>
<path d="M1870 1696 l0 -216 60 0 c70 0 111 17 128 55 15 33 16 285 1 318 -16
35 -47 50 -121 55 l-68 5 0 -217z"/>
<path d="M2482 1693 c1 -159 4 -246 5 -195 l4 92 74 0 75 0 45 -90 c25 -49 47
-90 50 -90 3 0 -15 41 -40 90 -40 81 -43 91 -28 96 80 26 93 52 93 189 0 169
-26 195 -190 195 l-90 0 2 -287z m216 257 c43 -27 52 -54 52 -165 0 -156 -19
-177 -166 -183 l-94 -4 0 186 0 186 88 0 c69 0 94 -4 120 -20z"/>
<path d="M2550 1785 l0 -115 48 0 c26 0 52 4 59 8 31 19 43 120 22 180 -11 32
-31 42 -91 42 l-38 0 0 -115z"/>
<path d="M2060 1050 l0 -150 39 0 c23 0 48 8 62 19 23 18 24 26 24 131 0 105
-1 113 -24 131 -14 11 -39 19 -62 19 l-39 0 0 -150z"/>
<path d="M2310 1120 l0 -80 48 0 c26 0 52 4 58 8 23 15 36 54 29 89 -5 27 -13
38 -40 49 -19 8 -48 14 -65 14 l-30 0 0 -80z"/>
<path d="M2592 1184 c-21 -14 -22 -23 -22 -130 0 -141 6 -154 65 -154 59 0 65
13 65 153 0 98 -3 116 -18 130 -23 21 -61 22 -90 1z"/>
<path d="M2830 1116 l0 -86 44 0 c36 0 48 5 65 26 12 15 21 41 21 59 0 49 -27
76 -83 82 l-47 6 0 -87z"/>
<path d="M3740 1050 l0 -150 40 0 c30 0 47 7 66 25 25 25 26 30 22 131 -3 97
-5 107 -27 125 -14 11 -39 19 -62 19 l-39 0 0 -150z"/>
<path d="M4390 1180 c-18 -18 -20 -33 -20 -133 0 -133 9 -151 76 -145 55 4 65
29 62 154 -2 84 -6 106 -22 123 -24 27 -70 27 -96 1z"/>
</g>
</svg>
