<?xml version="1.0" standalone="no"?>
<!DOCTYPE svg PUBLIC "-//W3C//DTD SVG 20010904//EN"
 "http://www.w3.org/TR/2001/REC-SVG-20010904/DTD/svg10.dtd">
<svg version="1.0" xmlns="http://www.w3.org/2000/svg"
 width="338.000000pt" height="88.000000pt" viewBox="0 0 338.000000 88.000000"
 preserveAspectRatio="xMidYMid meet">

<g transform="translate(0.000000,88.000000) scale(0.100000,-0.100000)"
fill="#000000" stroke="none">
<path d="M0 440 l0 -440 1690 0 1690 0 0 440 0 440 -1690 0 -1690 0 0 -440z
m1806 337 c44 -23 81 -70 95 -119 7 -26 9 -116 7 -242 -4 -239 -8 -254 -100
-300 -49 -24 -69 -28 -140 -28 -126 0 -206 42 -228 121 -5 20 -10 128 -10 241
0 264 11 293 128 336 50 19 205 13 248 -9z m671 0 c64 -33 103 -105 103 -189
l0 -38 -70 0 c-63 0 -70 2 -70 20 0 60 -55 97 -124 85 -66 -13 -71 -27 -71
-212 l0 -165 28 -24 c30 -26 83 -32 119 -13 20 11 48 65 48 94 0 12 -13 15
-60 15 l-60 0 0 65 0 65 130 0 130 0 0 -114 c0 -158 -24 -217 -104 -255 -89
-42 -233 -33 -308 21 -59 42 -68 79 -68 311 0 227 5 253 56 301 16 15 49 33
74 41 58 19 203 14 247 -8z m639 8 c53 -16 96 -53 113 -98 17 -45 14 -461 -3
-495 -37 -71 -106 -104 -221 -104 -116 0 -182 32 -223 107 -21 39 -30 363 -12
450 22 106 92 153 231 154 36 1 88 -6 115 -14z m-2600 -14 c86 -39 104 -96
104 -332 0 -181 -6 -220 -43 -273 -38 -55 -83 -66 -269 -66 l-168 0 0 345 0
345 168 0 c141 0 173 -3 208 -19z m605 8 c46 -16 86 -54 101 -98 8 -21 13 -85
13 -156 0 -127 -8 -158 -54 -199 -12 -11 -21 -25 -21 -31 0 -7 18 -51 40 -98
22 -47 40 -88 40 -91 0 -3 -33 -6 -72 -6 l-73 0 -40 90 c-36 81 -43 90 -67 90
l-28 0 0 -90 0 -90 -70 0 -70 0 0 345 0 345 134 0 c73 0 148 -5 167 -11z"/>
<path d="M1574 720 c-43 -22 -81 -76 -71 -101 3 -9 6 -6 6 8 1 33 48 81 89 93
87 24 174 4 209 -49 22 -32 23 -43 23 -218 0 -192 -5 -217 -46 -255 -28 -25
-107 -41 -159 -34 -56 9 -91 38 -110 91 -8 22 -14 32 -15 22 -1 -41 32 -86 77
-108 36 -17 56 -21 104 -16 71 6 116 31 144 77 18 32 20 52 20 215 0 155 -3
185 -18 217 -37 73 -164 102 -253 58z"/>
<path d="M1633 653 c-13 -2 -32 -16 -43 -30 -18 -23 -20 -40 -20 -175 0 -197
10 -218 104 -218 33 0 48 6 67 26 23 24 24 33 27 168 3 112 0 150 -12 179 -20
49 -55 63 -123 50z"/>
<path d="M1494 450 c0 -80 2 -112 3 -72 2 39 2 105 0 145 -1 39 -3 7 -3 -73z"/>
<path d="M2233 710 c-64 -39 -68 -53 -68 -265 0 -165 2 -194 18 -223 18 -33
68 -62 104 -62 10 1 0 7 -22 15 -85 30 -101 85 -93 323 5 145 17 180 72 206
19 9 59 16 90 16 78 0 131 -28 157 -83 10 -23 16 -31 13 -17 -10 46 -26 67
-64 89 -51 29 -161 30 -207 1z"/>
<path d="M2429 413 l73 -4 -3 -85 c-4 -83 -5 -86 -40 -118 -27 -25 -48 -35
-88 -40 -29 -4 -51 -9 -49 -12 10 -9 98 9 127 27 44 27 60 66 63 155 l3 79
-80 1 -80 0 74 -3z"/>
<path d="M2910 718 c-69 -35 -75 -55 -78 -260 -3 -160 -1 -182 17 -223 27 -61
87 -90 172 -82 73 6 114 31 139 82 18 36 20 62 20 216 0 146 -3 180 -18 208
-27 54 -61 73 -139 78 -57 4 -75 1 -113 -19z m179 -4 c71 -28 76 -44 79 -254
3 -210 -4 -237 -68 -275 -50 -28 -157 -28 -197 1 -55 40 -63 72 -63 256 0 203
10 240 74 269 50 23 123 24 175 3z"/>
<path d="M2975 653 c-11 -3 -30 -14 -42 -26 -22 -20 -23 -27 -23 -184 0 -161
0 -164 25 -188 19 -20 34 -25 74 -25 42 0 53 4 70 26 19 24 21 40 21 180 0
170 -7 197 -53 214 -31 10 -39 11 -72 3z"/>
<path d="M207 723 c-4 -3 -7 -132 -7 -285 l0 -278 120 0 c100 0 127 3 159 19
72 37 76 52 76 261 0 167 -2 188 -20 218 -33 55 -84 72 -211 72 -61 0 -114 -3
-117 -7z m270 -26 c60 -32 68 -61 68 -259 0 -163 -2 -179 -21 -205 -37 -50
-77 -63 -196 -63 l-108 0 0 276 0 276 113 -4 c81 -3 121 -9 144 -21z"/>
<path d="M280 446 l0 -216 60 0 c70 0 111 17 128 55 15 33 16 285 1 318 -16
35 -47 50 -121 55 l-68 5 0 -217z"/>
<path d="M892 443 c1 -159 4 -246 5 -195 l4 92 74 0 75 0 45 -90 c25 -49 47
-90 50 -90 3 0 -15 41 -40 90 -40 81 -43 91 -28 96 80 26 93 52 93 189 0 169
-26 195 -190 195 l-90 0 2 -287z m216 257 c43 -27 52 -54 52 -165 0 -156 -19
-177 -166 -183 l-94 -4 0 186 0 186 88 0 c69 0 94 -4 120 -20z"/>
<path d="M960 535 l0 -115 48 0 c26 0 52 4 59 8 31 19 43 120 22 180 -11 32
-31 42 -91 42 l-38 0 0 -115z"/>
</g>
</svg>
