<?xml version="1.0" standalone="no"?>
<!DOCTYPE svg PUBLIC "-//W3C//DTD SVG 20010904//EN"
 "http://www.w3.org/TR/2001/REC-SVG-20010904/DTD/svg10.dtd">
<svg version="1.0" xmlns="http://www.w3.org/2000/svg"
 width="265.000000pt" height="114.000000pt" viewBox="0 0 265.000000 114.000000"
 preserveAspectRatio="xMidYMid meet">

<g transform="translate(0.000000,114.000000) scale(0.100000,-0.100000)"
fill="#000000" stroke="none">
<path d="M0 570 l0 -570 1325 0 1325 0 0 570 0 570 -1325 0 -1325 0 0 -570z
m534 364 c11 -28 7 -564 -4 -565 -57 -5 -84 0 -95 15 -12 16 -15 16 -46 -3
-71 -43 -166 -17 -207 57 -62 110 -26 278 70 328 30 16 96 15 146 -1 22 -7 22
-6 22 89 l0 96 54 0 c40 0 55 -4 60 -16z m246 -173 c5 -11 10 -32 10 -46 l0
-27 25 30 c34 40 84 62 142 62 71 0 79 -8 62 -61 l-14 -42 -62 -1 c-59 -1 -65
-3 -100 -39 l-38 -37 -5 -116 -5 -116 -53 -1 -54 -1 1 197 c0 109 3 202 6 207
11 19 74 11 85 -9z m638 -8 c84 -55 117 -178 74 -274 -84 -187 -358 -143 -379
62 -7 69 10 130 47 173 42 47 85 66 155 66 50 0 69 -5 103 -27z m418 8 c31
-19 32 -19 48 0 19 23 69 25 86 4 9 -11 11 -70 8 -227 -3 -188 -5 -218 -23
-253 -23 -46 -77 -80 -142 -90 -53 -8 -145 10 -174 34 -21 17 -22 21 -10 50
18 41 20 42 67 26 21 -8 58 -14 81 -15 52 0 83 33 83 91 l0 39 -32 -20 c-42
-26 -113 -26 -154 -1 -90 55 -113 226 -42 317 50 63 141 83 204 45z m511 8
c133 -50 166 -261 57 -360 -104 -94 -286 -45 -323 88 -42 150 45 283 186 283
28 0 64 -5 80 -11z"/>
<path d="M323 680 c-48 -20 -67 -107 -39 -174 18 -44 41 -56 80 -45 46 13 56
34 56 114 0 42 -5 78 -12 88 -16 20 -57 29 -85 17z"/>
<path d="M1278 683 c-42 -11 -62 -126 -33 -183 30 -58 97 -64 128 -11 21 36
22 122 2 160 -19 38 -46 48 -97 34z"/>
<path d="M1760 677 c-46 -23 -62 -89 -39 -155 19 -56 101 -64 128 -13 15 27
14 134 -1 154 -18 23 -59 29 -88 14z"/>
<path d="M2225 673 c-53 -52 -44 -182 14 -213 31 -16 51 -12 82 19 25 26 29
37 29 86 0 59 -19 109 -45 119 -29 11 -63 6 -80 -11z"/>
</g>
</svg>
