<?xml version="1.0" standalone="no"?>
<!DOCTYPE svg PUBLIC "-//W3C//DTD SVG 20010904//EN"
 "http://www.w3.org/TR/2001/REC-SVG-20010904/DTD/svg10.dtd">
<svg version="1.0" xmlns="http://www.w3.org/2000/svg"
 width="157.000000pt" height="146.000000pt" viewBox="0 0 157.000000 146.000000"
 preserveAspectRatio="xMidYMid meet">

<g transform="translate(0.000000,146.000000) scale(0.100000,-0.100000)"
fill="#000000" stroke="none">
<path d="M0 730 l0 -730 785 0 785 0 0 730 0 730 -785 0 -785 0 0 -730z m1398
588 c14 -14 17 -1054 4 -1076 -7 -9 -46 -12 -163 -10 -146 3 -154 4 -154 23 0
19 8 20 138 23 l137 3 0 202 0 201 -75 -74 -75 -75 -127 127 -126 126 201 209
c189 195 202 210 202 246 l0 37 -215 0 -215 0 0 -166 0 -165 -22 7 c-13 4 -52
19 -87 34 l-64 28 -62 -28 c-33 -15 -71 -31 -83 -34 l-22 -7 0 165 0 166 -180
0 -180 0 0 -500 0 -499 128 -3 c119 -3 127 -4 127 -23 0 -19 -7 -20 -150 -20
l-150 0 -3 539 c-2 425 0 541 10 548 7 4 279 8 603 8 447 0 594 -3 603 -12z
m-360 -691 l83 -84 -72 -174 c-86 -210 -96 -229 -114 -229 -27 0 -26 21 6 79
33 60 34 91 2 91 -13 0 -33 -26 -63 -82 -28 -51 -52 -84 -64 -86 -37 -8 -34
20 10 93 47 78 53 102 27 112 -19 8 -39 -15 -93 -107 -45 -77 -71 -103 -94
-94 -25 10 -20 28 34 115 49 78 60 112 41 123 -20 13 -39 -8 -101 -109 -51
-83 -69 -105 -85 -103 -11 2 -21 10 -23 19 -2 9 51 99 118 199 67 100 120 189
118 198 -5 28 -33 24 -89 -13 -73 -48 -125 -64 -145 -43 -14 14 -4 23 98 96
l113 80 105 1 105 1 83 -83z"/>
</g>
</svg>
